{
    "asset" : {
        "generator" : "Khronos glTF Blender I/O v1.7.33",
        "version" : "2.0"
    },
    "scene" : 0,
    "scenes" : [
        {
            "name" : "Scene",
            "nodes" : [
                0,
                1
            ]
        }
    ],
    "nodes" : [
        {
            "mesh" : 0,
            "name" : "Pot",
            "rotation" : [
                -0.0014738679165020585,
                0.39166539907455444,
                -0.056659307330846786,
                0.9183603525161743
            ]
        },
        {
            "mesh" : 1,
            "name" : "Dandelion",
            "scale" : [
                0.10000000149011612,
                0.10000000149011612,
                0.10000000149011612
            ],
            "translation" : [
                0.003663218580186367,
                -0.0779021605849266,
                0.08350016921758652
            ]
        }
    ],
    "materials" : [
        {
            "alphaMode" : "BLEND",
            "doubleSided" : true,
            "name" : "Material.002",
            "pbrMetallicRoughness" : {
                "baseColorTexture" : {
                    "index" : 0
                },
                "metallicFactor" : 0,
                "roughnessFactor" : 0.32121214270591736
            }
        },
        {
            "doubleSided" : true,
            "name" : "pot",
            "pbrMetallicRoughness" : {
                "baseColorFactor" : [
                    0,
                    1,
                    0.007765340618789196,
                    1
                ],
                "metallicFactor" : 0,
                "roughnessFactor" : 0.30000001192092896
            }
        },
        {
            "doubleSided" : true,
            "name" : "Material.004",
            "pbrMetallicRoughness" : {
                "baseColorFactor" : [
                    0.05551883950829506,
                    0.017524775117635727,
                    0.00437886081635952,
                    1
                ],
                "metallicFactor" : 0,
                "roughnessFactor" : 0.7681819796562195
            }
        },
        {
            "doubleSided" : true,
            "name" : "daun",
            "pbrMetallicRoughness" : {
                "baseColorFactor" : [
                    0,
                    0.10548486560583115,
                    0.00677476404234767,
                    1
                ],
                "metallicFactor" : 0,
                "roughnessFactor" : 0.4000000059604645
            }
        },
        {
            "doubleSided" : true,
            "name" : "Material #3",
            "pbrMetallicRoughness" : {
                "baseColorFactor" : [
                    0.7255424857139587,
                    0.8000000715255737,
                    0,
                    1
                ],
                "metallicFactor" : 0,
                "roughnessFactor" : 0.4000000059604645
            }
        }
    ],
    "meshes" : [
        {
            "name" : "NurbsPath.028",
            "primitives" : [
                {
                    "attributes" : {
                        "POSITION" : 0,
                        "NORMAL" : 1,
                        "TEXCOORD_0" : 2,
                        "TEXCOORD_1" : 3,
                        "COLOR_0" : 4
                    },
                    "indices" : 5,
                    "material" : 0
                },
                {
                    "attributes" : {
                        "POSITION" : 6,
                        "NORMAL" : 7,
                        "TEXCOORD_0" : 8,
                        "TEXCOORD_1" : 9,
                        "COLOR_0" : 10
                    },
                    "indices" : 11,
                    "material" : 1
                },
                {
                    "attributes" : {
                        "POSITION" : 12,
                        "NORMAL" : 13,
                        "TEXCOORD_0" : 14,
                        "TEXCOORD_1" : 15,
                        "COLOR_0" : 16
                    },
                    "indices" : 17,
                    "material" : 2
                }
            ]
        },
        {
            "name" : "\u00ab\u00f1p\u00f3\u00e1\u00a1t\u00bf\u00ac-17_22",
            "primitives" : [
                {
                    "attributes" : {
                        "POSITION" : 18,
                        "NORMAL" : 19,
                        "TEXCOORD_0" : 20
                    },
                    "indices" : 21,
                    "material" : 3
                },
                {
                    "attributes" : {
                        "POSITION" : 22,
                        "NORMAL" : 23,
                        "TEXCOORD_0" : 24
                    },
                    "indices" : 25,
                    "material" : 4
                }
            ]
        }
    ],
    "textures" : [
        {
            "sampler" : 0,
            "source" : 0
        }
    ],
    "images" : [
        {
            "bufferView" : 6,
            "mimeType" : "image/png",
            "name" : "aloegreen"
        }
    ],
    "accessors" : [
        {
            "bufferView" : 0,
            "componentType" : 5126,
            "count" : 86,
            "max" : [
                0.21251463890075684,
                -0.017907530069351196,
                0.15002186596393585
            ],
            "min" : [
                -0.13205377757549286,
                -0.12865522503852844,
                -0.111600361764431
            ],
            "type" : "VEC3"
        },
        {
            "bufferView" : 1,
            "componentType" : 5126,
            "count" : 86,
            "type" : "VEC3"
        },
        {
            "bufferView" : 2,
            "componentType" : 5126,
            "count" : 86,
            "type" : "VEC2"
        },
        {
            "bufferView" : 3,
            "componentType" : 5126,
            "count" : 86,
            "type" : "VEC2"
        },
        {
            "bufferView" : 4,
            "componentType" : 5123,
            "count" : 86,
            "normalized" : true,
            "type" : "VEC4"
        },
        {
            "bufferView" : 5,
            "componentType" : 5123,
            "count" : 192,
            "type" : "SCALAR"
        },
        {
            "bufferView" : 7,
            "componentType" : 5126,
            "count" : 3411,
            "max" : [
                0.27984699606895447,
                0.009927153587341309,
                0.2679698169231415
            ],
            "min" : [
                -0.24677041172981262,
                -0.4890157878398895,
                -0.244096577167511
            ],
            "type" : "VEC3"
        },
        {
            "bufferView" : 8,
            "componentType" : 5126,
            "count" : 3411,
            "type" : "VEC3"
        },
        {
            "bufferView" : 9,
            "componentType" : 5126,
            "count" : 3411,
            "type" : "VEC2"
        },
        {
            "bufferView" : 10,
            "componentType" : 5126,
            "count" : 3411,
            "type" : "VEC2"
        },
        {
            "bufferView" : 11,
            "componentType" : 5123,
            "count" : 3411,
            "normalized" : true,
            "type" : "VEC4"
        },
        {
            "bufferView" : 12,
            "componentType" : 5123,
            "count" : 17640,
            "type" : "SCALAR"
        },
        {
            "bufferView" : 13,
            "componentType" : 5126,
            "count" : 83,
            "max" : [
                0.2494751513004303,
                -0.002947479486465454,
                0.2594045400619507
            ],
            "min" : [
                -0.24299246072769165,
                -0.05853816866874695,
                -0.23352620005607605
            ],
            "type" : "VEC3"
        },
        {
            "bufferView" : 14,
            "componentType" : 5126,
            "count" : 83,
            "type" : "VEC3"
        },
        {
            "bufferView" : 15,
            "componentType" : 5126,
            "count" : 83,
            "type" : "VEC2"
        },
        {
            "bufferView" : 16,
            "componentType" : 5126,
            "count" : 83,
            "type" : "VEC2"
        },
        {
            "bufferView" : 17,
            "componentType" : 5123,
            "count" : 83,
            "normalized" : true,
            "type" : "VEC4"
        },
        {
            "bufferView" : 18,
            "componentType" : 5123,
            "count" : 378,
            "type" : "SCALAR"
        },
        {
            "bufferView" : 19,
            "componentType" : 5126,
            "count" : 16043,
            "max" : [
                4.854630470275879,
                5.497994899749756,
                4.971928119659424
            ],
            "min" : [
                -4.854630470275879,
                -5.541369318962097e-08,
                -4.971928119659424
            ],
            "type" : "VEC3"
        },
        {
            "bufferView" : 20,
            "componentType" : 5126,
            "count" : 16043,
            "type" : "VEC3"
        },
        {
            "bufferView" : 21,
            "componentType" : 5126,
            "count" : 16043,
            "type" : "VEC2"
        },
        {
            "bufferView" : 22,
            "componentType" : 5123,
            "count" : 59628,
            "type" : "SCALAR"
        },
        {
            "bufferView" : 23,
            "componentType" : 5126,
            "count" : 18566,
            "max" : [
                3.452092409133911,
                6.14148473739624,
                2.451709508895874
            ],
            "min" : [
                -3.683577060699463,
                0.004261493682861328,
                -1.9380924701690674
            ],
            "type" : "VEC3"
        },
        {
            "bufferView" : 24,
            "componentType" : 5126,
            "count" : 18566,
            "type" : "VEC3"
        },
        {
            "bufferView" : 25,
            "componentType" : 5126,
            "count" : 18566,
            "type" : "VEC2"
        },
        {
            "bufferView" : 26,
            "componentType" : 5123,
            "count" : 40206,
            "type" : "SCALAR"
        }
    ],
    "bufferViews" : [
        {
            "buffer" : 0,
            "byteLength" : 1032,
            "byteOffset" : 0
        },
        {
            "buffer" : 0,
            "byteLength" : 1032,
            "byteOffset" : 1032
        },
        {
            "buffer" : 0,
            "byteLength" : 688,
            "byteOffset" : 2064
        },
        {
            "buffer" : 0,
            "byteLength" : 688,
            "byteOffset" : 2752
        },
        {
            "buffer" : 0,
            "byteLength" : 688,
            "byteOffset" : 3440
        },
        {
            "buffer" : 0,
            "byteLength" : 384,
            "byteOffset" : 4128
        },
        {
            "buffer" : 0,
            "byteLength" : 487657,
            "byteOffset" : 4512
        },
        {
            "buffer" : 0,
            "byteLength" : 40932,
            "byteOffset" : 492172
        },
        {
            "buffer" : 0,
            "byteLength" : 40932,
            "byteOffset" : 533104
        },
        {
            "buffer" : 0,
            "byteLength" : 27288,
            "byteOffset" : 574036
        },
        {
            "buffer" : 0,
            "byteLength" : 27288,
            "byteOffset" : 601324
        },
        {
            "buffer" : 0,
            "byteLength" : 27288,
            "byteOffset" : 628612
        },
        {
            "buffer" : 0,
            "byteLength" : 35280,
            "byteOffset" : 655900
        },
        {
            "buffer" : 0,
            "byteLength" : 996,
            "byteOffset" : 691180
        },
        {
            "buffer" : 0,
            "byteLength" : 996,
            "byteOffset" : 692176
        },
        {
            "buffer" : 0,
            "byteLength" : 664,
            "byteOffset" : 693172
        },
        {
            "buffer" : 0,
            "byteLength" : 664,
            "byteOffset" : 693836
        },
        {
            "buffer" : 0,
            "byteLength" : 664,
            "byteOffset" : 694500
        },
        {
            "buffer" : 0,
            "byteLength" : 756,
            "byteOffset" : 695164
        },
        {
            "buffer" : 0,
            "byteLength" : 192516,
            "byteOffset" : 695920
        },
        {
            "buffer" : 0,
            "byteLength" : 192516,
            "byteOffset" : 888436
        },
        {
            "buffer" : 0,
            "byteLength" : 128344,
            "byteOffset" : 1080952
        },
        {
            "buffer" : 0,
            "byteLength" : 119256,
            "byteOffset" : 1209296
        },
        {
            "buffer" : 0,
            "byteLength" : 222792,
            "byteOffset" : 1328552
        },
        {
            "buffer" : 0,
            "byteLength" : 222792,
            "byteOffset" : 1551344
        },
        {
            "buffer" : 0,
            "byteLength" : 148528,
            "byteOffset" : 1774136
        },
        {
            "buffer" : 0,
            "byteLength" : 80412,
            "byteOffset" : 1922664
        }
    ],
    "samplers" : [
        {
            "magFilter" : 9729,
            "minFilter" : 9987
        }
    ],
    "buffers" : [
        {
            "byteLength" : 2003076,
            "uri" : "data:application/octet-stream;base64,"
        }
    ]
}
