{
    "asset" : {
        "generator" : "Khronos glTF Blender I/O v1.7.33",
        "version" : "2.0"
    },
    "scene" : 0,
    "scenes" : [
        {
            "name" : "Scene",
            "nodes" : [
                0
            ]
        }
    ],
    "nodes" : [
        {
            "mesh" : 0,
            "name" : "Aloe",
            "rotation" : [
                -0.0014738679165020585,
                0.39166539907455444,
                -0.056659307330846786,
                0.9183603525161743
            ]
        }
    ],
    "materials" : [
        {
            "alphaMode" : "BLEND",
            "doubleSided" : true,
            "name" : "Material.002",
            "pbrMetallicRoughness" : {
                "baseColorTexture" : {
                    "index" : 0
                },
                "metallicFactor" : 0,
                "roughnessFactor" : 0.32121214270591736
            }
        },
        {
            "doubleSided" : true,
            "name" : "Material.001",
            "pbrMetallicRoughness" : {
                "baseColorFactor" : [
                    0.6104959845542908,
                    0.6866852641105652,
                    0.2831488251686096,
                    1
                ],
                "metallicFactor" : 0,
                "roughnessFactor" : 0.5
            }
        },
        {
            "doubleSided" : true,
            "name" : "pot",
            "pbrMetallicRoughness" : {
                "baseColorFactor" : [
                    0,
                    1,
                    0.007765340618789196,
                    1
                ],
                "metallicFactor" : 0,
                "roughnessFactor" : 0.30000001192092896
            }
        },
        {
            "doubleSided" : true,
            "name" : "Material.004",
            "pbrMetallicRoughness" : {
                "baseColorFactor" : [
                    0.05551883950829506,
                    0.017524775117635727,
                    0.00437886081635952,
                    1
                ],
                "metallicFactor" : 0,
                "roughnessFactor" : 0.7681819796562195
            }
        }
    ],
    "meshes" : [
        {
            "name" : "NurbsPath.028",
            "primitives" : [
                {
                    "attributes" : {
                        "POSITION" : 0,
                        "NORMAL" : 1,
                        "TEXCOORD_0" : 2,
                        "TEXCOORD_1" : 3,
                        "COLOR_0" : 4
                    },
                    "indices" : 5,
                    "material" : 0
                },
                {
                    "attributes" : {
                        "POSITION" : 6,
                        "NORMAL" : 7,
                        "TEXCOORD_0" : 8,
                        "TEXCOORD_1" : 9,
                        "COLOR_0" : 10
                    },
                    "indices" : 11,
                    "material" : 1
                },
                {
                    "attributes" : {
                        "POSITION" : 12,
                        "NORMAL" : 13,
                        "TEXCOORD_0" : 14,
                        "TEXCOORD_1" : 15,
                        "COLOR_0" : 16
                    },
                    "indices" : 17,
                    "material" : 2
                },
                {
                    "attributes" : {
                        "POSITION" : 18,
                        "NORMAL" : 19,
                        "TEXCOORD_0" : 20,
                        "TEXCOORD_1" : 21,
                        "COLOR_0" : 22
                    },
                    "indices" : 23,
                    "material" : 3
                }
            ]
        }
    ],
    "textures" : [
        {
            "sampler" : 0,
            "source" : 0
        }
    ],
    "images" : [
        {
            "bufferView" : 6,
            "mimeType" : "image/png",
            "name" : "aloegreen"
        }
    ],
    "accessors" : [
        {
            "bufferView" : 0,
            "componentType" : 5126,
            "count" : 4143,
            "max" : [
                0.4873453676700592,
                0.8815302848815918,
                0.37915465235710144
            ],
            "min" : [
                -0.4358440637588501,
                -0.12865522503852844,
                -0.4395041763782501
            ],
            "type" : "VEC3"
        },
        {
            "bufferView" : 1,
            "componentType" : 5126,
            "count" : 4143,
            "type" : "VEC3"
        },
        {
            "bufferView" : 2,
            "componentType" : 5126,
            "count" : 4143,
            "type" : "VEC2"
        },
        {
            "bufferView" : 3,
            "componentType" : 5126,
            "count" : 4143,
            "type" : "VEC2"
        },
        {
            "bufferView" : 4,
            "componentType" : 5123,
            "count" : 4143,
            "normalized" : true,
            "type" : "VEC4"
        },
        {
            "bufferView" : 5,
            "componentType" : 5123,
            "count" : 16833,
            "type" : "SCALAR"
        },
        {
            "bufferView" : 7,
            "componentType" : 5126,
            "count" : 2989,
            "max" : [
                0.48547855019569397,
                0.8815302848815918,
                0.3699188530445099
            ],
            "min" : [
                -0.43265432119369507,
                -0.06355035305023193,
                -0.43011268973350525
            ],
            "type" : "VEC3"
        },
        {
            "bufferView" : 8,
            "componentType" : 5126,
            "count" : 2989,
            "type" : "VEC3"
        },
        {
            "bufferView" : 9,
            "componentType" : 5126,
            "count" : 2989,
            "type" : "VEC2"
        },
        {
            "bufferView" : 10,
            "componentType" : 5126,
            "count" : 2989,
            "type" : "VEC2"
        },
        {
            "bufferView" : 11,
            "componentType" : 5123,
            "count" : 2989,
            "normalized" : true,
            "type" : "VEC4"
        },
        {
            "bufferView" : 12,
            "componentType" : 5123,
            "count" : 3888,
            "type" : "SCALAR"
        },
        {
            "bufferView" : 13,
            "componentType" : 5126,
            "count" : 3413,
            "max" : [
                0.27984699606895447,
                0.009927153587341309,
                0.2679698169231415
            ],
            "min" : [
                -0.24677041172981262,
                -0.4890157878398895,
                -0.244096577167511
            ],
            "type" : "VEC3"
        },
        {
            "bufferView" : 14,
            "componentType" : 5126,
            "count" : 3413,
            "type" : "VEC3"
        },
        {
            "bufferView" : 15,
            "componentType" : 5126,
            "count" : 3413,
            "type" : "VEC2"
        },
        {
            "bufferView" : 16,
            "componentType" : 5126,
            "count" : 3413,
            "type" : "VEC2"
        },
        {
            "bufferView" : 17,
            "componentType" : 5123,
            "count" : 3413,
            "normalized" : true,
            "type" : "VEC4"
        },
        {
            "bufferView" : 18,
            "componentType" : 5123,
            "count" : 17664,
            "type" : "SCALAR"
        },
        {
            "bufferView" : 19,
            "componentType" : 5126,
            "count" : 83,
            "max" : [
                0.2494751513004303,
                -0.002947479486465454,
                0.2594045400619507
            ],
            "min" : [
                -0.24299246072769165,
                -0.05853816866874695,
                -0.23352620005607605
            ],
            "type" : "VEC3"
        },
        {
            "bufferView" : 20,
            "componentType" : 5126,
            "count" : 83,
            "type" : "VEC3"
        },
        {
            "bufferView" : 21,
            "componentType" : 5126,
            "count" : 83,
            "type" : "VEC2"
        },
        {
            "bufferView" : 22,
            "componentType" : 5126,
            "count" : 83,
            "type" : "VEC2"
        },
        {
            "bufferView" : 23,
            "componentType" : 5123,
            "count" : 83,
            "normalized" : true,
            "type" : "VEC4"
        },
        {
            "bufferView" : 24,
            "componentType" : 5123,
            "count" : 378,
            "type" : "SCALAR"
        }
    ],
    "bufferViews" : [
        {
            "buffer" : 0,
            "byteLength" : 49716,
            "byteOffset" : 0
        },
        {
            "buffer" : 0,
            "byteLength" : 49716,
            "byteOffset" : 49716
        },
        {
            "buffer" : 0,
            "byteLength" : 33144,
            "byteOffset" : 99432
        },
        {
            "buffer" : 0,
            "byteLength" : 33144,
            "byteOffset" : 132576
        },
        {
            "buffer" : 0,
            "byteLength" : 33144,
            "byteOffset" : 165720
        },
        {
            "buffer" : 0,
            "byteLength" : 33666,
            "byteOffset" : 198864
        },
        {
            "buffer" : 0,
            "byteLength" : 487657,
            "byteOffset" : 232532
        },
        {
            "buffer" : 0,
            "byteLength" : 35868,
            "byteOffset" : 720192
        },
        {
            "buffer" : 0,
            "byteLength" : 35868,
            "byteOffset" : 756060
        },
        {
            "buffer" : 0,
            "byteLength" : 23912,
            "byteOffset" : 791928
        },
        {
            "buffer" : 0,
            "byteLength" : 23912,
            "byteOffset" : 815840
        },
        {
            "buffer" : 0,
            "byteLength" : 23912,
            "byteOffset" : 839752
        },
        {
            "buffer" : 0,
            "byteLength" : 7776,
            "byteOffset" : 863664
        },
        {
            "buffer" : 0,
            "byteLength" : 40956,
            "byteOffset" : 871440
        },
        {
            "buffer" : 0,
            "byteLength" : 40956,
            "byteOffset" : 912396
        },
        {
            "buffer" : 0,
            "byteLength" : 27304,
            "byteOffset" : 953352
        },
        {
            "buffer" : 0,
            "byteLength" : 27304,
            "byteOffset" : 980656
        },
        {
            "buffer" : 0,
            "byteLength" : 27304,
            "byteOffset" : 1007960
        },
        {
            "buffer" : 0,
            "byteLength" : 35328,
            "byteOffset" : 1035264
        },
        {
            "buffer" : 0,
            "byteLength" : 996,
            "byteOffset" : 1070592
        },
        {
            "buffer" : 0,
            "byteLength" : 996,
            "byteOffset" : 1071588
        },
        {
            "buffer" : 0,
            "byteLength" : 664,
            "byteOffset" : 1072584
        },
        {
            "buffer" : 0,
            "byteLength" : 664,
            "byteOffset" : 1073248
        },
        {
            "buffer" : 0,
            "byteLength" : 664,
            "byteOffset" : 1073912
        },
        {
            "buffer" : 0,
            "byteLength" : 756,
            "byteOffset" : 1074576
        }
    ],
    "samplers" : [
        {
            "magFilter" : 9729,
            "minFilter" : 9987
        }
    ],
    "buffers" : [
        {
            "byteLength" : 1075332,
            "uri" : "data:application/octet-stream;base64,"
        }
    ]
}
