{
    "asset" : {
        "generator" : "Khronos glTF Blender I/O v1.7.33",
        "version" : "2.0"
    },
    "scene" : 0,
    "scenes" : [
        {
            "name" : "Scene",
            "nodes" : [
                0,
                1
            ]
        }
    ],
    "nodes" : [
        {
            "mesh" : 0,
            "name" : "Pot",
            "rotation" : [
                -0.0014738679165020585,
                0.39166539907455444,
                -0.056659307330846786,
                0.9183603525161743
            ]
        },
        {
            "mesh" : 1,
            "name" : "Jasmine",
            "rotation" : [
                0.5361722111701965,
                0.4609983265399933,
                -0.4609982371330261,
                0.536172091960907
            ],
            "scale" : [
                0.30000001192092896,
                0.30000001192092896,
                0.30000001192092896
            ],
            "translation" : [
                0,
                -0.07302099466323853,
                0
            ]
        }
    ],
    "materials" : [
        {
            "alphaMode" : "BLEND",
            "doubleSided" : true,
            "name" : "Material.002",
            "pbrMetallicRoughness" : {
                "baseColorTexture" : {
                    "index" : 0
                },
                "metallicFactor" : 0,
                "roughnessFactor" : 0.32121214270591736
            }
        },
        {
            "doubleSided" : true,
            "name" : "pot",
            "pbrMetallicRoughness" : {
                "baseColorFactor" : [
                    0,
                    1,
                    0.007765340618789196,
                    1
                ],
                "metallicFactor" : 0,
                "roughnessFactor" : 0.30000001192092896
            }
        },
        {
            "doubleSided" : true,
            "name" : "Material.004",
            "pbrMetallicRoughness" : {
                "baseColorFactor" : [
                    0.05551883950829506,
                    0.017524775117635727,
                    0.00437886081635952,
                    1
                ],
                "metallicFactor" : 0,
                "roughnessFactor" : 0.7681819796562195
            }
        },
        {
            "doubleSided" : true,
            "name" : "Core_Mat",
            "pbrMetallicRoughness" : {
                "baseColorFactor" : [
                    1,
                    0.7686269879341125,
                    0.16078400611877441,
                    1
                ],
                "metallicFactor" : 0,
                "roughnessFactor" : 0.5527864098548889
            }
        },
        {
            "doubleSided" : true,
            "name" : "Petal_Mat",
            "pbrMetallicRoughness" : {
                "baseColorFactor" : [
                    0.8039219975471497,
                    0.807843029499054,
                    0.784313976764679,
                    1
                ],
                "metallicFactor" : 0,
                "roughnessFactor" : 0.5527864098548889
            }
        },
        {
            "doubleSided" : true,
            "name" : "Leaf_Mat",
            "pbrMetallicRoughness" : {
                "baseColorFactor" : [
                    0.18431399762630463,
                    0.35294100642204285,
                    0,
                    1
                ],
                "metallicFactor" : 0,
                "roughnessFactor" : 0.5527864098548889
            }
        },
        {
            "doubleSided" : true,
            "name" : "Stem_Mat",
            "pbrMetallicRoughness" : {
                "baseColorFactor" : [
                    0.6549019813537598,
                    0.3944759964942932,
                    0.22087399661540985,
                    1
                ],
                "metallicFactor" : 0,
                "roughnessFactor" : 0.5527864098548889
            }
        }
    ],
    "meshes" : [
        {
            "name" : "NurbsPath.028",
            "primitives" : [
                {
                    "attributes" : {
                        "POSITION" : 0,
                        "NORMAL" : 1,
                        "TEXCOORD_0" : 2,
                        "TEXCOORD_1" : 3,
                        "COLOR_0" : 4
                    },
                    "indices" : 5,
                    "material" : 0
                },
                {
                    "attributes" : {
                        "POSITION" : 6,
                        "NORMAL" : 7,
                        "TEXCOORD_0" : 8,
                        "TEXCOORD_1" : 9,
                        "COLOR_0" : 10
                    },
                    "indices" : 11,
                    "material" : 1
                },
                {
                    "attributes" : {
                        "POSITION" : 12,
                        "NORMAL" : 13,
                        "TEXCOORD_0" : 14,
                        "TEXCOORD_1" : 15,
                        "COLOR_0" : 16
                    },
                    "indices" : 17,
                    "material" : 2
                }
            ]
        },
        {
            "name" : "Jasmine",
            "primitives" : [
                {
                    "attributes" : {
                        "POSITION" : 18,
                        "NORMAL" : 19,
                        "TEXCOORD_0" : 20,
                        "TEXCOORD_1" : 21,
                        "COLOR_0" : 22
                    },
                    "indices" : 23,
                    "material" : 3
                },
                {
                    "attributes" : {
                        "POSITION" : 24,
                        "NORMAL" : 25,
                        "TEXCOORD_0" : 26,
                        "TEXCOORD_1" : 27,
                        "COLOR_0" : 28
                    },
                    "indices" : 29,
                    "material" : 4
                },
                {
                    "attributes" : {
                        "POSITION" : 30,
                        "NORMAL" : 31,
                        "TEXCOORD_0" : 32,
                        "TEXCOORD_1" : 33,
                        "COLOR_0" : 34
                    },
                    "indices" : 35,
                    "material" : 5
                },
                {
                    "attributes" : {
                        "POSITION" : 36,
                        "NORMAL" : 37,
                        "TEXCOORD_0" : 38,
                        "TEXCOORD_1" : 39,
                        "COLOR_0" : 40
                    },
                    "indices" : 41,
                    "material" : 6
                }
            ]
        }
    ],
    "textures" : [
        {
            "sampler" : 0,
            "source" : 0
        }
    ],
    "images" : [
        {
            "bufferView" : 6,
            "mimeType" : "image/png",
            "name" : "aloegreen"
        }
    ],
    "accessors" : [
        {
            "bufferView" : 0,
            "componentType" : 5126,
            "count" : 86,
            "max" : [
                0.21251463890075684,
                -0.017907530069351196,
                0.15002186596393585
            ],
            "min" : [
                -0.13205377757549286,
                -0.12865522503852844,
                -0.111600361764431
            ],
            "type" : "VEC3"
        },
        {
            "bufferView" : 1,
            "componentType" : 5126,
            "count" : 86,
            "type" : "VEC3"
        },
        {
            "bufferView" : 2,
            "componentType" : 5126,
            "count" : 86,
            "type" : "VEC2"
        },
        {
            "bufferView" : 3,
            "componentType" : 5126,
            "count" : 86,
            "type" : "VEC2"
        },
        {
            "bufferView" : 4,
            "componentType" : 5123,
            "count" : 86,
            "normalized" : true,
            "type" : "VEC4"
        },
        {
            "bufferView" : 5,
            "componentType" : 5123,
            "count" : 192,
            "type" : "SCALAR"
        },
        {
            "bufferView" : 7,
            "componentType" : 5126,
            "count" : 3411,
            "max" : [
                0.27984699606895447,
                0.009927153587341309,
                0.2679698169231415
            ],
            "min" : [
                -0.24677041172981262,
                -0.4890157878398895,
                -0.244096577167511
            ],
            "type" : "VEC3"
        },
        {
            "bufferView" : 8,
            "componentType" : 5126,
            "count" : 3411,
            "type" : "VEC3"
        },
        {
            "bufferView" : 9,
            "componentType" : 5126,
            "count" : 3411,
            "type" : "VEC2"
        },
        {
            "bufferView" : 10,
            "componentType" : 5126,
            "count" : 3411,
            "type" : "VEC2"
        },
        {
            "bufferView" : 11,
            "componentType" : 5123,
            "count" : 3411,
            "normalized" : true,
            "type" : "VEC4"
        },
        {
            "bufferView" : 12,
            "componentType" : 5123,
            "count" : 17640,
            "type" : "SCALAR"
        },
        {
            "bufferView" : 13,
            "componentType" : 5126,
            "count" : 83,
            "max" : [
                0.2494751513004303,
                -0.002947479486465454,
                0.2594045400619507
            ],
            "min" : [
                -0.24299246072769165,
                -0.05853816866874695,
                -0.23352620005607605
            ],
            "type" : "VEC3"
        },
        {
            "bufferView" : 14,
            "componentType" : 5126,
            "count" : 83,
            "type" : "VEC3"
        },
        {
            "bufferView" : 15,
            "componentType" : 5126,
            "count" : 83,
            "type" : "VEC2"
        },
        {
            "bufferView" : 16,
            "componentType" : 5126,
            "count" : 83,
            "type" : "VEC2"
        },
        {
            "bufferView" : 17,
            "componentType" : 5123,
            "count" : 83,
            "normalized" : true,
            "type" : "VEC4"
        },
        {
            "bufferView" : 18,
            "componentType" : 5123,
            "count" : 378,
            "type" : "SCALAR"
        },
        {
            "bufferView" : 19,
            "componentType" : 5126,
            "count" : 469,
            "max" : [
                0.48528337478637695,
                0.5416086912155151,
                -1.336853265762329
            ],
            "min" : [
                -0.6146672368049622,
                -0.616583526134491,
                -2.800403118133545
            ],
            "type" : "VEC3"
        },
        {
            "bufferView" : 20,
            "componentType" : 5126,
            "count" : 469,
            "type" : "VEC3"
        },
        {
            "bufferView" : 21,
            "componentType" : 5126,
            "count" : 469,
            "type" : "VEC2"
        },
        {
            "bufferView" : 22,
            "componentType" : 5126,
            "count" : 469,
            "type" : "VEC2"
        },
        {
            "bufferView" : 23,
            "componentType" : 5123,
            "count" : 469,
            "normalized" : true,
            "type" : "VEC4"
        },
        {
            "bufferView" : 24,
            "componentType" : 5123,
            "count" : 2646,
            "type" : "SCALAR"
        },
        {
            "bufferView" : 25,
            "componentType" : 5126,
            "count" : 1400,
            "max" : [
                0.6528782844543457,
                0.6535974740982056,
                -1.1955288648605347
            ],
            "min" : [
                -0.7938288450241089,
                -0.7831688523292542,
                -2.9355642795562744
            ],
            "type" : "VEC3"
        },
        {
            "bufferView" : 26,
            "componentType" : 5126,
            "count" : 1400,
            "type" : "VEC3"
        },
        {
            "bufferView" : 27,
            "componentType" : 5126,
            "count" : 1400,
            "type" : "VEC2"
        },
        {
            "bufferView" : 28,
            "componentType" : 5126,
            "count" : 1400,
            "type" : "VEC2"
        },
        {
            "bufferView" : 29,
            "componentType" : 5123,
            "count" : 1400,
            "normalized" : true,
            "type" : "VEC4"
        },
        {
            "bufferView" : 30,
            "componentType" : 5123,
            "count" : 3150,
            "type" : "SCALAR"
        },
        {
            "bufferView" : 31,
            "componentType" : 5126,
            "count" : 1245,
            "max" : [
                0.6779469847679138,
                0.6307450532913208,
                -0.14613159000873566
            ],
            "min" : [
                -0.7826377153396606,
                -0.6950932145118713,
                -2.523287773132324
            ],
            "type" : "VEC3"
        },
        {
            "bufferView" : 32,
            "componentType" : 5126,
            "count" : 1245,
            "type" : "VEC3"
        },
        {
            "bufferView" : 33,
            "componentType" : 5126,
            "count" : 1245,
            "type" : "VEC2"
        },
        {
            "bufferView" : 34,
            "componentType" : 5126,
            "count" : 1245,
            "type" : "VEC2"
        },
        {
            "bufferView" : 35,
            "componentType" : 5123,
            "count" : 1245,
            "normalized" : true,
            "type" : "VEC4"
        },
        {
            "bufferView" : 36,
            "componentType" : 5123,
            "count" : 3984,
            "type" : "SCALAR"
        },
        {
            "bufferView" : 37,
            "componentType" : 5126,
            "count" : 905,
            "max" : [
                0.48528337478637695,
                0.48557689785957336,
                0.004988840781152248
            ],
            "min" : [
                -0.6146672368049622,
                -0.5949453711509705,
                -2.76997971534729
            ],
            "type" : "VEC3"
        },
        {
            "bufferView" : 38,
            "componentType" : 5126,
            "count" : 905,
            "type" : "VEC3"
        },
        {
            "bufferView" : 39,
            "componentType" : 5126,
            "count" : 905,
            "type" : "VEC2"
        },
        {
            "bufferView" : 40,
            "componentType" : 5126,
            "count" : 905,
            "type" : "VEC2"
        },
        {
            "bufferView" : 41,
            "componentType" : 5123,
            "count" : 905,
            "normalized" : true,
            "type" : "VEC4"
        },
        {
            "bufferView" : 42,
            "componentType" : 5123,
            "count" : 3783,
            "type" : "SCALAR"
        }
    ],
    "bufferViews" : [
        {
            "buffer" : 0,
            "byteLength" : 1032,
            "byteOffset" : 0
        },
        {
            "buffer" : 0,
            "byteLength" : 1032,
            "byteOffset" : 1032
        },
        {
            "buffer" : 0,
            "byteLength" : 688,
            "byteOffset" : 2064
        },
        {
            "buffer" : 0,
            "byteLength" : 688,
            "byteOffset" : 2752
        },
        {
            "buffer" : 0,
            "byteLength" : 688,
            "byteOffset" : 3440
        },
        {
            "buffer" : 0,
            "byteLength" : 384,
            "byteOffset" : 4128
        },
        {
            "buffer" : 0,
            "byteLength" : 487657,
            "byteOffset" : 4512
        },
        {
            "buffer" : 0,
            "byteLength" : 40932,
            "byteOffset" : 492172
        },
        {
            "buffer" : 0,
            "byteLength" : 40932,
            "byteOffset" : 533104
        },
        {
            "buffer" : 0,
            "byteLength" : 27288,
            "byteOffset" : 574036
        },
        {
            "buffer" : 0,
            "byteLength" : 27288,
            "byteOffset" : 601324
        },
        {
            "buffer" : 0,
            "byteLength" : 27288,
            "byteOffset" : 628612
        },
        {
            "buffer" : 0,
            "byteLength" : 35280,
            "byteOffset" : 655900
        },
        {
            "buffer" : 0,
            "byteLength" : 996,
            "byteOffset" : 691180
        },
        {
            "buffer" : 0,
            "byteLength" : 996,
            "byteOffset" : 692176
        },
        {
            "buffer" : 0,
            "byteLength" : 664,
            "byteOffset" : 693172
        },
        {
            "buffer" : 0,
            "byteLength" : 664,
            "byteOffset" : 693836
        },
        {
            "buffer" : 0,
            "byteLength" : 664,
            "byteOffset" : 694500
        },
        {
            "buffer" : 0,
            "byteLength" : 756,
            "byteOffset" : 695164
        },
        {
            "buffer" : 0,
            "byteLength" : 5628,
            "byteOffset" : 695920
        },
        {
            "buffer" : 0,
            "byteLength" : 5628,
            "byteOffset" : 701548
        },
        {
            "buffer" : 0,
            "byteLength" : 3752,
            "byteOffset" : 707176
        },
        {
            "buffer" : 0,
            "byteLength" : 3752,
            "byteOffset" : 710928
        },
        {
            "buffer" : 0,
            "byteLength" : 3752,
            "byteOffset" : 714680
        },
        {
            "buffer" : 0,
            "byteLength" : 5292,
            "byteOffset" : 718432
        },
        {
            "buffer" : 0,
            "byteLength" : 16800,
            "byteOffset" : 723724
        },
        {
            "buffer" : 0,
            "byteLength" : 16800,
            "byteOffset" : 740524
        },
        {
            "buffer" : 0,
            "byteLength" : 11200,
            "byteOffset" : 757324
        },
        {
            "buffer" : 0,
            "byteLength" : 11200,
            "byteOffset" : 768524
        },
        {
            "buffer" : 0,
            "byteLength" : 11200,
            "byteOffset" : 779724
        },
        {
            "buffer" : 0,
            "byteLength" : 6300,
            "byteOffset" : 790924
        },
        {
            "buffer" : 0,
            "byteLength" : 14940,
            "byteOffset" : 797224
        },
        {
            "buffer" : 0,
            "byteLength" : 14940,
            "byteOffset" : 812164
        },
        {
            "buffer" : 0,
            "byteLength" : 9960,
            "byteOffset" : 827104
        },
        {
            "buffer" : 0,
            "byteLength" : 9960,
            "byteOffset" : 837064
        },
        {
            "buffer" : 0,
            "byteLength" : 9960,
            "byteOffset" : 847024
        },
        {
            "buffer" : 0,
            "byteLength" : 7968,
            "byteOffset" : 856984
        },
        {
            "buffer" : 0,
            "byteLength" : 10860,
            "byteOffset" : 864952
        },
        {
            "buffer" : 0,
            "byteLength" : 10860,
            "byteOffset" : 875812
        },
        {
            "buffer" : 0,
            "byteLength" : 7240,
            "byteOffset" : 886672
        },
        {
            "buffer" : 0,
            "byteLength" : 7240,
            "byteOffset" : 893912
        },
        {
            "buffer" : 0,
            "byteLength" : 7240,
            "byteOffset" : 901152
        },
        {
            "buffer" : 0,
            "byteLength" : 7566,
            "byteOffset" : 908392
        }
    ],
    "samplers" : [
        {
            "magFilter" : 9729,
            "minFilter" : 9987
        }
    ],
    "buffers" : [
        {
            "byteLength" : 915960,
            "uri" : "data:application/octet-stream;base64,"
        }
    ]
}
